<svg width="659" height="463" viewBox="0 0 659 463" fill="none" xmlns="http://www.w3.org/2000/svg">
<path d="M70 82.9983C70 92.9383 61.9413 100.997 52 100.997C42.0587 100.997 34 92.9383 34 82.9983C34 73.0583 42.0587 65 52 65C61.9413 65 70 73.0583 70 82.9983Z" stroke="#E10600" stroke-width="4"/>
<path d="M657 87.9974C657 103.46 644.464 115.995 629 115.995C613.536 115.995 601 103.46 601 87.9974C601 72.535 613.536 60 629 60C644.464 60 657 72.535 657 87.9974Z" stroke="#E10600" stroke-width="4"/>
<circle cx="430" cy="247" r="200" fill="#00BF6F"/>
<circle cx="230" cy="247" r="200" fill="#FFCD00"/>
<path fill-rule="evenodd" clip-rule="evenodd" d="M22 2C22 0.895431 21.1046 0 20 0C18.8954 0 18 0.895431 18 2V16.9982H2C0.895431 16.9982 0 17.8937 0 18.9982C0 20.1028 0.895431 20.9982 2 20.9982H18V37.9966C18 39.1012 18.8954 39.9966 20 39.9966C21.1046 39.9966 22 39.1012 22 37.9966V20.9982H38C39.1046 20.9982 40 20.1028 40 18.9982C40 17.8937 39.1046 16.9982 38 16.9982H22V2Z" fill="#E10600"/>
<path fill-rule="evenodd" clip-rule="evenodd" d="M616 425C616 423.895 615.105 423 614 423C612.895 423 612 423.895 612 425V439.998H596C594.895 439.998 594 440.894 594 441.998C594 443.103 594.895 443.998 596 443.998H612V460.997C612 462.101 612.895 462.997 614 462.997C615.105 462.997 616 462.101 616 460.997V443.998H632C633.105 443.998 634 443.103 634 441.998C634 440.894 633.105 439.998 632 439.998H616V425Z" fill="#E10600"/>
<ellipse cx="94" cy="29.9991" rx="10" ry="9.99915" fill="black"/>
<ellipse cx="645" cy="393.999" rx="10" ry="9.99915" fill="black"/>
<ellipse cx="38" cy="422.999" rx="10" ry="9.99915" fill="black"/>
</svg>
