<svg width="800" height="600" viewBox="0 0 800 600" fill="none" xmlns="http://www.w3.org/2000/svg">
<path d="M147 501.71C147 501.71 97.1599 500.25 77.0099 461.14C61.1699 430.38 70.0199 385.19 136.5 373.21C177.84 365.75 105.06 283.69 194.33 263.88C283.6 244.07 282.75 155.65 370.74 138.22C458.73 120.79 458.89 244.67 537.66 257.76C616.44 270.85 672.06 305.35 652.75 369.72C633.44 434.09 677.79 436.59 684.4 465.35C691.01 494.12 672.31 501.72 672.31 501.72H147V501.71Z" fill="#F2F2F2"/>
<path d="M777.1 502.49H22.4701C22.1101 502.49 21.8101 502.2 21.8101 501.83C21.8101 501.47 22.1001 501.17 22.4701 501.17H777.1C777.46 501.17 777.76 501.46 777.76 501.83C777.76 502.19 777.47 502.49 777.1 502.49Z" fill="#44465F"/>
<path d="M104.25 457.09C104.25 457.09 84.96 464.37 85.05 451.61C85.15 438.85 91.1 435.68 82.46 430.88C73.82 426.08 68.45 424.35 69.98 415.04C71.52 405.73 51.36 397.86 53.38 387.5C55.4 377.14 71.04 379.15 77.28 386.16C83.52 393.17 98.49 387.7 101.27 403.63C104.05 419.56 104.92 417.45 114.9 425.22C124.88 432.99 121.34 452.7 104.25 457.1V457.09Z" fill="#44465F"/>
<path d="M106.83 471.56C106.83 471.56 106.78 471.56 106.76 471.56C105.91 471.52 105.26 470.81 105.3 469.96C105.3 469.8 105.69 459.29 101.62 445.12C97.8599 432.05 89.4199 413.09 70.5699 397.01C69.9299 396.46 69.8499 395.49 70.3999 394.85C70.9499 394.2 71.9199 394.13 72.5599 394.68C92.0399 411.29 100.73 430.88 104.6 444.39C108.8 459.05 108.38 469.65 108.36 470.1C108.32 470.92 107.65 471.57 106.83 471.57V471.56Z" fill="#44465F"/>
<path d="M113.26 458.71C113.26 458.71 130.14 465.08 130.06 453.91C129.98 442.74 124.77 439.97 132.33 435.77C139.89 431.57 144.59 430.06 143.25 421.91C141.91 413.76 159.54 406.88 157.78 397.81C156.02 388.74 142.33 390.5 136.87 396.63C131.41 402.76 118.31 397.97 115.88 411.91C113.44 425.85 112.69 424 103.96 430.8C95.2299 437.6 98.3299 454.84 113.28 458.69L113.26 458.71Z" fill="#FFAE2C"/>
<path d="M111 471.559C110.18 471.559 109.51 470.919 109.47 470.089C109.45 469.699 109.09 460.389 112.77 447.539C116.16 435.689 123.79 418.509 140.87 403.949C141.51 403.399 142.48 403.479 143.03 404.119C143.58 404.759 143.5 405.729 142.86 406.279C126.41 420.309 119.04 436.859 115.76 448.259C112.19 460.659 112.54 469.859 112.54 469.949C112.58 470.799 111.92 471.509 111.07 471.549C111.05 471.549 111.02 471.549 111 471.549V471.559Z" fill="#44465F"/>
<path d="M124.94 501.85H94.98C93.59 501.85 92.41 500.86 92.16 499.5L87.44 473.41C87.12 471.65 88.47 470.04 90.26 470.04H129.66C131.45 470.04 132.8 471.66 132.48 473.41L127.76 499.5C127.51 500.86 126.33 501.85 124.94 501.85Z" fill="#44465F"/>
<path d="M733.39 457.09C733.39 457.09 752.68 464.37 752.59 451.61C752.49 438.85 746.54 435.68 755.18 430.88C763.82 426.08 769.19 424.35 767.66 415.04C766.12 405.73 786.28 397.86 784.26 387.5C782.24 377.14 766.6 379.15 760.36 386.16C754.12 393.17 739.15 387.7 736.37 403.63C733.59 419.56 732.72 417.45 722.74 425.22C712.76 432.99 716.3 452.7 733.39 457.1V457.09Z" fill="#44465F"/>
<path d="M730.81 471.56C730.81 471.56 730.86 471.56 730.88 471.56C731.73 471.52 732.38 470.81 732.34 469.96C732.34 469.8 731.95 459.29 736.02 445.12C739.78 432.05 748.22 413.09 767.07 397.01C767.71 396.46 767.79 395.49 767.24 394.85C766.69 394.2 765.72 394.13 765.08 394.68C745.6 411.29 736.91 430.88 733.04 444.39C728.84 459.05 729.26 469.65 729.28 470.1C729.32 470.92 729.99 471.57 730.81 471.57V471.56Z" fill="#44465F"/>
<path d="M724.38 458.71C724.38 458.71 707.5 465.08 707.58 453.91C707.66 442.74 712.87 439.97 705.31 435.77C697.75 431.57 693.05 430.06 694.39 421.91C695.73 413.76 678.1 406.88 679.86 397.81C681.62 388.74 695.31 390.5 700.77 396.63C706.23 402.76 719.33 397.97 721.76 411.91C724.2 425.85 724.95 424 733.68 430.8C742.41 437.6 739.31 454.84 724.36 458.69L724.38 458.71Z" fill="#FFAE2C"/>
<path d="M726.64 471.559C727.46 471.559 728.13 470.919 728.17 470.089C728.19 469.699 728.55 460.389 724.87 447.539C721.48 435.689 713.85 418.509 696.77 403.949C696.13 403.399 695.16 403.479 694.61 404.119C694.06 404.759 694.14 405.729 694.78 406.279C711.23 420.309 718.6 436.859 721.88 448.259C725.45 460.659 725.1 469.859 725.1 469.949C725.06 470.799 725.72 471.509 726.57 471.549C726.59 471.549 726.62 471.549 726.64 471.549V471.559Z" fill="#44465F"/>
<path d="M712.7 501.85H742.66C744.05 501.85 745.23 500.86 745.48 499.5L750.2 473.41C750.52 471.65 749.17 470.04 747.38 470.04H707.98C706.19 470.04 704.84 471.66 705.16 473.41L709.88 499.5C710.13 500.86 711.31 501.85 712.7 501.85V501.85Z" fill="#44465F"/>
<path d="M11.8099 232.28H127.09C127.09 223.92 121.55 216.87 113.94 214.58C111.88 205.39 103.74 198.5 93.9499 198.38C88.6999 188.18 78.0699 181.21 65.8099 181.21C50.1499 181.21 37.1499 192.59 34.6299 207.53C34.4799 207.53 34.3299 207.52 34.1799 207.52C21.7599 207.52 11.6899 217.59 11.6899 230.01C11.6899 230.78 11.7299 231.54 11.7999 232.29H11.8199L11.8099 232.28Z" fill="#F2F2F2"/>
<path d="M327.02 248.12C324.73 243.04 321.89 238.53 318.6 234.54C312.54 254.76 299.95 291.2 291.43 277.37C285.64 267.98 292.79 252.03 301.39 238.42C306.23 230.76 303.38 220.6 295.22 216.66C295.15 216.62 295.07 216.59 295 216.56C292.35 215.29 289.19 216.79 288.53 219.66C283.69 240.63 273.66 277.44 265.06 265.71C258.42 256.64 265.77 236.66 273.48 220.9C276.17 215.4 272.85 208.89 266.83 207.8L266.66 207.77C264.72 207.42 262.85 208.68 262.44 210.61C258.81 227.79 251.54 253.58 241.64 246.62C235.06 242 238.01 229.66 243.2 217.53C245.73 211.63 241.38 205.08 234.96 205.05H234.78C232.79 205.04 231.12 206.56 230.94 208.55C229.89 220.1 227.28 236.1 220.96 233.89C217.86 232.81 217.3 228.27 217.98 222.6C219.07 213.58 211.43 205.9 202.41 206.98C190.29 208.43 182.44 210.17 182.44 210.17C182.44 210.17 182.03 219.32 182.91 232.9C183.3 238.92 189.09 243 194.93 241.47C200.67 239.96 206.5 240.16 210.26 244.81C216.99 253.11 200.31 254.87 189.28 255.16C187.15 255.22 185.56 257.13 185.91 259.23L185.94 259.44C187.26 267.26 195.09 272.16 202.74 270.06C208.48 268.48 214.22 268.78 217.53 273.95C223.29 282.94 205.93 285.03 194.41 285.46C193.23 285.5 192.42 286.67 192.79 287.79L192.87 288.03C196.17 298.02 208.03 302.08 216.88 296.38C225.89 290.57 235.99 286.73 243.44 291.4C255.12 298.72 229.88 309.77 212.83 316C210 317.03 208.98 320.55 210.87 322.9C211.09 323.18 211.31 323.45 211.54 323.72C216.35 329.57 224.86 330.72 231.04 326.34C238.39 321.12 247.15 317.4 255.04 320.7C265.27 324.98 254.32 332.36 243 337.92C240.11 339.34 240.61 343.64 243.77 344.29C290.32 353.89 351.88 303.41 327 248.13L327.02 248.12Z" fill="#00BF6F" fill-opacity="0.2"/>
<path d="M320.28 271.56C320.4 271.33 320.32 271.04 320.08 270.91C319.85 270.78 319.56 270.87 319.43 271.11C319.27 271.41 303.07 301.5 284.97 312.13C281.31 307.69 277.45 303.17 273.48 298.66C273.47 298.63 273.46 298.61 273.44 298.58C273.4 298.52 273.35 298.48 273.29 298.44C270.84 295.66 268.36 292.88 265.86 290.12C278.23 283.32 285.28 269.53 289.04 259.08C293.15 247.63 294.29 237.62 294.3 237.52C294.33 237.26 294.14 237.02 293.88 236.99C293.62 236.96 293.38 237.15 293.35 237.41C293.31 237.8 288.73 276.68 265.2 289.39C260.36 284.07 255.48 278.83 250.72 273.82C250.71 273.8 250.7 273.77 250.69 273.75C250.65 273.69 250.59 273.65 250.53 273.62C247.75 270.69 245.01 267.84 242.35 265.1C257 257.72 264.22 231.22 264.52 230.08C264.59 229.82 264.44 229.56 264.18 229.49C263.92 229.42 263.66 229.57 263.59 229.83C263.52 230.11 256.09 257.38 241.64 264.37C238.06 260.69 234.63 257.21 231.43 253.99C231.39 253.92 231.34 253.87 231.28 253.83C229.33 251.87 227.46 250 225.7 248.25C234.38 240.9 236.8 216.76 236.8 216.53C236.8 216.27 236.59 216.06 236.33 216.06C236.08 216.06 235.85 216.26 235.84 216.52C235.83 216.75 233.33 240.65 225.01 247.57C215.9 238.53 209.81 232.75 209.6 232.55C209.41 232.37 209.11 232.38 208.92 232.57C208.74 232.76 208.75 233.06 208.94 233.25C209.2 233.49 217.93 241.78 230.21 254.11C215.68 261.64 194.96 260.44 194.75 260.43C194.48 260.42 194.26 260.61 194.24 260.88C194.22 261.14 194.42 261.37 194.69 261.39C194.74 261.39 196.03 261.47 198.16 261.47C204.82 261.47 219.71 260.74 230.91 254.83C236.56 260.52 242.94 267.03 249.55 273.99C232.9 286.11 207.4 290.02 207.15 290.06C206.89 290.1 206.71 290.34 206.75 290.6C206.79 290.84 206.99 291.01 207.22 291.01C207.24 291.01 207.27 291.01 207.29 291.01C207.55 290.97 233.38 287.01 250.22 274.69C257.51 282.37 265.09 290.57 272.32 298.78C245.75 317.58 222.86 320.04 222.63 320.06C222.37 320.09 222.18 320.32 222.2 320.58C222.22 320.83 222.43 321.01 222.68 321.01C222.7 321.01 222.71 321.01 222.73 321.01C222.96 320.99 246.14 318.51 272.96 299.5C279.19 306.59 285.15 313.69 290.45 320.46C271.69 335.31 262.64 334.23 262.53 334.21C262.27 334.17 262.03 334.35 261.99 334.61C261.95 334.87 262.13 335.12 262.39 335.16C262.45 335.16 262.71 335.2 263.17 335.2C265.76 335.2 274.77 334.1 291.04 321.21C297.37 329.35 302.71 337 306.36 343.6C306.45 343.76 306.61 343.85 306.78 343.85C306.86 343.85 306.94 343.83 307.01 343.79C307.24 343.66 307.32 343.37 307.2 343.14C303.48 336.42 298.02 328.61 291.55 320.31C291.54 320.28 291.53 320.25 291.51 320.22C291.49 320.2 291.47 320.18 291.45 320.17C289.58 317.77 287.62 315.33 285.59 312.86C303.87 302.03 320.12 271.85 320.28 271.54V271.56Z" fill="#00BF6F" fill-opacity="0.7"/>
<path d="M556.73 481.17C561.45 478.22 565.53 474.79 569.05 470.98C548.19 467.72 510.38 460.2 522.92 449.87C531.44 442.86 548.21 447.77 562.86 454.45C571.11 458.21 580.79 454 583.58 445.38C583.6 445.3 583.63 445.23 583.65 445.15C584.55 442.35 582.63 439.43 579.7 439.16C558.27 437.21 520.44 432.27 530.89 422.16C538.97 414.35 559.76 418.92 576.43 424.42C582.24 426.34 588.24 422.17 588.51 416.06V415.89C588.6 413.92 587.1 412.24 585.13 412.1C567.62 410.83 541.08 407.13 546.63 396.38C550.32 389.24 562.94 390.48 575.66 393.98C581.85 395.68 587.74 390.49 586.91 384.12L586.89 383.94C586.63 381.96 584.89 380.52 582.9 380.61C571.31 381.13 555.11 380.72 556.44 374.16C557.09 370.94 561.51 369.77 567.22 369.68C576.3 369.53 582.88 360.92 580.58 352.13C577.5 340.32 574.71 332.78 574.71 332.78C574.71 332.78 565.59 333.62 552.26 336.33C546.35 337.53 543.09 343.82 545.4 349.4C547.67 354.88 548.27 360.68 544.18 365.05C536.87 372.85 532.86 356.56 531.08 345.67C530.74 343.57 528.62 342.25 526.59 342.88L526.39 342.94C518.82 345.31 515.03 353.73 518.15 361.02C520.5 366.49 520.98 372.22 516.31 376.2C508.18 383.12 503.75 366.21 501.77 354.86C501.57 353.69 500.3 353.05 499.24 353.57L499.01 353.68C489.56 358.3 487.15 370.61 494 378.6C500.97 386.74 506.15 396.22 502.54 404.24C496.87 416.81 482.5 393.3 474.02 377.25C472.61 374.58 468.99 374.05 466.92 376.24C466.68 376.5 466.43 376.75 466.19 377.01C461.05 382.57 461.06 391.16 466.24 396.68C472.4 403.25 477.29 411.43 475.08 419.69C472.22 430.41 463.43 420.56 456.39 410.1C454.59 407.42 450.4 408.51 450.18 411.73C446.99 459.15 505.36 513.29 556.75 481.14L556.73 481.17Z" fill="#00BF6F" fill-opacity="0.2"/>
<path d="M532.58 477.68C532.83 477.77 533.1 477.64 533.19 477.4C533.28 477.15 533.15 476.88 532.91 476.79C532.59 476.67 500.58 464.7 487.59 448.22C491.49 444 495.44 439.56 499.38 435.01C499.4 434.99 499.43 434.98 499.45 434.96C499.5 434.91 499.54 434.85 499.56 434.79C501.98 431.99 504.4 429.15 506.79 426.3C515.2 437.63 529.83 442.75 540.69 445.05C552.59 447.57 562.67 447.34 562.77 447.34C563.03 447.34 563.24 447.11 563.24 446.85C563.24 446.59 563.01 446.38 562.75 446.38C562.35 446.39 523.22 447.13 507.43 425.55C512.04 420.04 516.57 414.49 520.89 409.09C520.91 409.08 520.94 409.07 520.95 409.05C521 409 521.04 408.94 521.06 408.87C523.58 405.72 526.03 402.62 528.39 399.6C537.69 413.12 564.93 416.67 566.1 416.81C566.36 416.84 566.6 416.66 566.63 416.39C566.67 416.13 566.48 415.89 566.22 415.86C565.94 415.82 537.9 412.17 529.02 398.8C532.18 394.76 535.17 390.88 537.92 387.28C537.98 387.23 538.02 387.17 538.05 387.11C539.73 384.91 541.32 382.81 542.82 380.83C551.28 388.44 575.52 387.55 575.75 387.52C576.01 387.48 576.18 387.25 576.16 386.99C576.13 386.74 575.9 386.54 575.64 386.57C575.41 386.59 551.39 387.36 543.4 380.06C551.12 369.8 556.02 362.99 556.19 362.75C556.34 362.54 556.29 362.24 556.08 362.08C555.87 361.93 555.57 361.98 555.41 362.19C555.2 362.48 548.18 372.26 537.63 386.09C528.2 372.72 526.57 352.03 526.56 351.82C526.53 351.55 526.31 351.36 526.05 351.38C525.79 351.4 525.59 351.63 525.61 351.89C525.61 351.94 525.71 353.23 526 355.34C526.9 361.94 529.65 376.59 537.03 386.88C532.16 393.25 526.57 400.45 520.58 407.95C506.31 393.1 498.98 368.37 498.9 368.12C498.83 367.87 498.56 367.72 498.31 367.79C498.08 367.86 497.94 368.08 497.97 368.31C497.97 368.33 497.97 368.36 497.98 368.38C498.05 368.63 505.48 393.68 519.97 408.7C513.35 416.97 506.26 425.58 499.1 433.87C476.87 410.1 471.33 387.75 471.27 387.53C471.21 387.27 470.95 387.11 470.69 387.18C470.45 387.24 470.29 387.47 470.33 387.71C470.33 387.73 470.33 387.74 470.33 387.76C470.38 387.99 475.99 410.62 498.46 434.61C492.28 441.74 486.06 448.61 480.07 454.78C462.81 438.21 462.65 429.1 462.65 428.98C462.65 428.71 462.44 428.5 462.18 428.5C461.92 428.5 461.7 428.71 461.69 428.97C461.69 429.03 461.69 429.29 461.75 429.75C462.1 432.32 464.42 441.1 479.39 455.47C472.19 462.84 465.33 469.18 459.28 473.69C459.14 473.8 459.07 473.97 459.09 474.14C459.1 474.22 459.13 474.29 459.18 474.36C459.34 474.57 459.64 474.62 459.85 474.46C466.01 469.86 473 463.39 480.34 455.86C480.37 455.84 480.4 455.83 480.42 455.81C480.44 455.79 480.45 455.76 480.46 455.74C482.58 453.56 484.74 451.29 486.91 448.94C500.12 465.58 532.23 477.58 532.56 477.7L532.58 477.68Z" fill="#00BF6F" fill-opacity="0.7"/>
<path d="M777.1 502.49H22.4701C22.1101 502.49 21.8101 502.2 21.8101 501.83C21.8101 501.47 22.1001 501.17 22.4701 501.17H777.1C777.46 501.17 777.76 501.46 777.76 501.83C777.76 502.19 777.47 502.49 777.1 502.49Z" fill="#44465F"/>
<path d="M104.25 457.09C104.25 457.09 84.96 464.37 85.05 451.61C85.15 438.85 91.1 435.68 82.46 430.88C73.82 426.08 68.45 424.35 69.98 415.04C71.52 405.73 51.36 397.86 53.38 387.5C55.4 377.14 71.04 379.15 77.28 386.16C83.52 393.17 98.49 387.7 101.27 403.63C104.05 419.56 104.92 417.45 114.9 425.22C124.88 432.99 121.34 452.7 104.25 457.1V457.09Z" fill="#00BF6F"/>
<path d="M106.83 471.56C106.83 471.56 106.78 471.56 106.76 471.56C105.91 471.52 105.26 470.81 105.3 469.96C105.3 469.8 105.69 459.29 101.62 445.12C97.8599 432.05 89.4199 413.09 70.5699 397.01C69.9299 396.46 69.8499 395.49 70.3999 394.85C70.9499 394.2 71.9199 394.13 72.5599 394.68C92.0399 411.29 100.73 430.88 104.6 444.39C108.8 459.05 108.38 469.65 108.36 470.1C108.32 470.92 107.65 471.57 106.83 471.57V471.56Z" fill="#44465F"/>
<path d="M113.26 458.71C113.26 458.71 130.14 465.08 130.06 453.91C129.98 442.74 124.77 439.97 132.33 435.77C139.89 431.57 144.59 430.06 143.25 421.91C141.91 413.76 159.54 406.88 157.78 397.81C156.02 388.74 142.33 390.5 136.87 396.63C131.41 402.76 118.31 397.97 115.88 411.91C113.44 425.85 112.69 424 103.96 430.8C95.2299 437.6 98.3299 454.84 113.28 458.69L113.26 458.71Z" fill="#1E8D6F"/>
<path d="M111 471.559C110.18 471.559 109.51 470.919 109.47 470.089C109.45 469.699 109.09 460.389 112.77 447.539C116.16 435.689 123.79 418.509 140.87 403.949C141.51 403.399 142.48 403.479 143.03 404.119C143.58 404.759 143.5 405.729 142.86 406.279C126.41 420.309 119.04 436.859 115.76 448.259C112.19 460.659 112.54 469.859 112.54 469.949C112.58 470.799 111.92 471.509 111.07 471.549C111.05 471.549 111.02 471.549 111 471.549V471.559Z" fill="#44465F"/>
<path d="M124.94 501.85H94.98C93.59 501.85 92.41 500.86 92.16 499.5L87.44 473.41C87.12 471.65 88.47 470.04 90.26 470.04H129.66C131.45 470.04 132.8 471.66 132.48 473.41L127.76 499.5C127.51 500.86 126.33 501.85 124.94 501.85Z" fill="#44465F"/>
<path d="M733.39 457.09C733.39 457.09 752.68 464.37 752.59 451.61C752.49 438.85 746.54 435.68 755.18 430.88C763.82 426.08 769.19 424.35 767.66 415.04C766.12 405.73 786.28 397.86 784.26 387.5C782.24 377.14 766.6 379.15 760.36 386.16C754.12 393.17 739.15 387.7 736.37 403.63C733.59 419.56 732.72 417.45 722.74 425.22C712.76 432.99 716.3 452.7 733.39 457.1V457.09Z" fill="#00BF6F"/>
<path d="M730.81 471.56C730.81 471.56 730.86 471.56 730.88 471.56C731.73 471.52 732.38 470.81 732.34 469.96C732.34 469.8 731.95 459.29 736.02 445.12C739.78 432.05 748.22 413.09 767.07 397.01C767.71 396.46 767.79 395.49 767.24 394.85C766.69 394.2 765.72 394.13 765.08 394.68C745.6 411.29 736.91 430.88 733.04 444.39C728.84 459.05 729.26 469.65 729.28 470.1C729.32 470.92 729.99 471.57 730.81 471.57V471.56Z" fill="#44465F"/>
<path d="M724.38 458.71C724.38 458.71 707.5 465.08 707.58 453.91C707.66 442.74 712.87 439.97 705.31 435.77C697.75 431.57 693.05 430.06 694.39 421.91C695.73 413.76 678.1 406.88 679.86 397.81C681.62 388.74 695.31 390.5 700.77 396.63C706.23 402.76 719.33 397.97 721.76 411.91C724.2 425.85 724.95 424 733.68 430.8C742.41 437.6 739.31 454.84 724.36 458.69L724.38 458.71Z" fill="#1E8D6F"/>
<path d="M726.64 471.559C727.46 471.559 728.13 470.919 728.17 470.089C728.19 469.699 728.55 460.389 724.87 447.539C721.48 435.689 713.85 418.509 696.77 403.949C696.13 403.399 695.16 403.479 694.61 404.119C694.06 404.759 694.14 405.729 694.78 406.279C711.23 420.309 718.6 436.859 721.88 448.259C725.45 460.659 725.1 469.859 725.1 469.949C725.06 470.799 725.72 471.509 726.57 471.549C726.59 471.549 726.62 471.549 726.64 471.549V471.559Z" fill="#44465F"/>
<path d="M712.7 501.85H742.66C744.05 501.85 745.23 500.86 745.48 499.5L750.2 473.41C750.52 471.65 749.17 470.04 747.38 470.04H707.98C706.19 470.04 704.84 471.66 705.16 473.41L709.88 499.5C710.13 500.86 711.31 501.85 712.7 501.85V501.85Z" fill="#44465F"/>
<path d="M570.82 82.7204H704.77C704.77 73.0104 698.33 64.8104 689.49 62.1504C687.1 51.4704 677.63 43.4604 666.26 43.3204C660.16 31.4704 647.81 23.3604 633.56 23.3604C615.36 23.3604 600.26 36.5803 597.32 53.9403C597.15 53.9403 596.98 53.9304 596.8 53.9304C582.36 53.9304 570.66 65.6304 570.66 80.0704C570.66 80.9604 570.71 81.8504 570.79 82.7204H570.81H570.82Z" fill="#F2F2F2"/>
<path d="M652.72 576.999H200.9C194.97 576.999 190.12 572.149 190.12 566.219C190.12 560.289 194.97 555.439 200.9 555.439H652.72C658.65 555.439 663.5 560.289 663.5 566.219C663.5 572.149 658.65 576.999 652.72 576.999Z" fill="#F2F2F2"/>
<path d="M163.26 576.999H135.56C129.63 576.999 124.78 572.149 124.78 566.219C124.78 560.289 129.63 555.439 135.56 555.439H163.26C169.19 555.439 174.04 560.289 174.04 566.219C174.04 572.149 169.19 576.999 163.26 576.999Z" fill="#F2F2F2"/>
<path d="M567.42 512.34H539.72C533.766 512.34 528.94 517.164 528.94 523.115C528.94 529.066 533.766 533.89 539.72 533.89H567.42C573.374 533.89 578.2 529.066 578.2 523.115C578.2 517.164 573.374 512.34 567.42 512.34Z" fill="#F2F2F2"/>
<path d="M256.1 512.34H168.35C162.396 512.34 157.57 517.164 157.57 523.115C157.57 529.066 162.396 533.89 168.35 533.89H256.1C262.054 533.89 266.88 529.066 266.88 523.115C266.88 517.164 262.054 512.34 256.1 512.34Z" fill="#F2F2F2"/>
<path d="M614.44 512.34H604.47C598.516 512.34 593.69 517.164 593.69 523.115C593.69 529.066 598.516 533.89 604.47 533.89H614.44C620.394 533.89 625.22 529.066 625.22 523.115C625.22 517.164 620.394 512.34 614.44 512.34Z" fill="#F2F2F2"/>
<path d="M500.4 512.34H296.97C291.016 512.34 286.19 517.164 286.19 523.115C286.19 529.066 291.016 533.89 296.97 533.89H500.4C506.354 533.89 511.18 529.066 511.18 523.115C511.18 517.164 506.354 512.34 500.4 512.34Z" fill="#F2F2F2"/>
<path d="M478.52 544.67C478.52 538.74 483.37 533.89 489.3 533.89H318.66C324.59 533.89 329.44 538.74 329.44 544.67C329.44 550.6 324.59 555.45 318.66 555.45H489.3C483.37 555.45 478.52 550.6 478.52 544.67Z" fill="#F2F2F2"/>
<path d="M434.79 132.84H372.21C371.63 132.84 371.17 133.31 371.17 133.88V176.43C371.17 177.01 371.64 177.47 372.21 177.47H375.49C376.07 177.47 376.53 177.94 376.53 178.51V189.73C376.53 190.61 377.56 191.1 378.24 190.54L393.87 177.71C394.06 177.56 394.29 177.47 394.53 177.47H434.78C435.36 177.47 435.82 177 435.82 176.43V133.88C435.82 133.3 435.35 132.84 434.78 132.84H434.79Z" fill="white"/>
<path d="M620.254 223.759C654.468 189.545 654.468 134.074 620.254 99.86C586.04 65.6461 530.569 65.6461 496.355 99.86C462.141 134.074 462.141 189.545 496.355 223.759C530.569 257.973 586.04 257.973 620.254 223.759Z" fill="#44465F"/>
<path d="M558.3 241.58C602.356 241.58 638.07 205.866 638.07 161.81C638.07 117.754 602.356 82.04 558.3 82.04C514.244 82.04 478.53 117.754 478.53 161.81C478.53 205.866 514.244 241.58 558.3 241.58Z" fill="#EFF1FE"/>
<mask id="mask0_6_15705" style="mask-type:alpha" maskUnits="userSpaceOnUse" x="478" y="82" width="161" height="160">
<path d="M558.3 241.58C602.356 241.58 638.07 205.866 638.07 161.81C638.07 117.754 602.356 82.04 558.3 82.04C514.244 82.04 478.53 117.754 478.53 161.81C478.53 205.866 514.244 241.58 558.3 241.58Z" fill="#EFF1FE"/>
</mask>
<g mask="url(#mask0_6_15705)">
<path d="M540.7 141.399L526.03 156.629L535.64 164.379L543.41 154.759L540.7 141.399Z" fill="#EBB4B6"/>
<path d="M553.38 156.63L541.89 155.8C541.21 155.75 540.67 155.01 540.69 154.14L541.46 123.11C541.48 122.32 542.02 121.81 542.67 121.97L553.62 124.78C554.19 124.93 554.64 125.64 554.64 126.38L554.46 155.24C554.46 156.04 553.97 156.66 553.38 156.62V156.63Z" fill="#44465F"/>
<path d="M553.9 153.039L541.43 151.879L542.05 125.609L554.07 128.449L553.9 153.039Z" fill="#EFF1FE"/>
<path d="M548.79 155.11L546.78 154.95C546.45 154.92 546.19 154.55 546.2 154.13C546.2 153.7 546.48 153.38 546.81 153.41L548.82 153.59C549.14 153.62 549.39 153.98 549.39 154.4C549.39 154.82 549.12 155.14 548.8 155.12L548.79 155.11Z" fill="#7C87ED"/>
<path d="M544.84 124.819C544.58 124.759 544.37 124.439 544.37 124.109C544.37 123.779 544.6 123.569 544.86 123.639C545.12 123.709 545.33 124.029 545.32 124.349C545.32 124.679 545.09 124.889 544.83 124.829L544.84 124.819Z" fill="#7C87ED"/>
<path d="M550.46 125.98C550.31 125.94 550.18 125.75 550.18 125.55C550.18 125.35 550.31 125.22 550.47 125.26C550.62 125.3 550.75 125.49 550.75 125.69C550.75 125.89 550.62 126.02 550.47 125.98H550.46Z" fill="#DCDFFE"/>
<path d="M549.38 125.62L547.19 125.08C547.13 125.07 547.09 125 547.09 124.93V124.63C547.09 124.56 547.14 124.51 547.2 124.53L549.39 125.07C549.44 125.08 549.49 125.15 549.49 125.22V125.51C549.49 125.58 549.44 125.62 549.39 125.61L549.38 125.62Z" fill="#7C87ED"/>
<path d="M544.37 130.689C544.37 130.689 537.86 131.049 536.83 136.509C535.81 141.959 540.81 149.519 540.81 149.519L540.92 145.829C540.92 145.829 543.87 144.349 545.52 142.079C547.17 139.809 547.92 131.299 544.36 130.689H544.37Z" fill="#EBB4B6"/>
<path d="M536.9 179.66C536.65 173.7 542.93 168.24 548.44 167.88C560.16 167.13 576.54 166.7 589.89 168.45C594.41 169.04 600.57 170.47 602.45 178.63L599.91 239L603.37 273.83H533.81L537.24 236.36C537.67 225.74 538.84 226.13 536.91 179.64L536.9 179.66Z" fill="#E10600"/>
<path d="M577.23 147.98L577.39 168.13C577.41 170.33 575.62 172.11 573.42 172.09L561.55 171.97C559.38 171.95 557.64 170.17 557.66 168L557.8 155.61L577.24 147.97L577.23 147.98Z" fill="#EBB4B6"/>
<path d="M546.79 122.059C546.79 122.059 548.88 140.109 549.62 142.439C550.36 144.769 551.38 120.729 551.38 120.729L546.79 122.059V122.059Z" fill="#44465F"/>
<path d="M577.32 160.03L559.4 160.54C553.89 160.36 549.51 155.86 549.46 150.35L549.21 120.22L581.6 122.99L583.46 144.7C583.46 144.7 581.66 149.63 577.23 147.99L577.32 160.03V160.03Z" fill="#EBB4B6"/>
<path d="M557.69 165.05L573.71 160.13L557.74 160.34L557.69 165.05Z" fill="#EBA6B6"/>
<path d="M577.32 160.03C577.32 160.03 599.97 121.98 581.43 117.8C581.43 117.8 577.08 104.07 563.69 108.21C550.3 112.34 539.6 112.58 539.6 112.58C539.6 112.58 547.2 124.63 552.73 126.89C558.26 129.15 573.76 127.5 573.76 127.5L576.56 139.13C576.56 139.13 580.67 138.33 580.93 141.73C581.19 145.13 577.17 147.22 577.17 147.22C577.17 147.22 576.42 157 577.32 160.03V160.03Z" fill="#44465F"/>
<path d="M528.66 148.689L543.41 158.899L526.03 183.129L543.22 169.899L546.89 201.219L507.97 209.439C495.94 211.539 486.35 200.149 497.97 186.249L528.67 148.689H528.66Z" fill="#E10600"/>
<path d="M600.82 174.439C600.82 174.439 605.55 184.969 613.46 215.179C620.92 243.689 623.64 252.319 623.64 252.319L602.15 248.399L591.19 206.889" fill="#E10600"/>
<path d="M591.65 208.679C592.37 211.149 593.07 213.619 593.76 216.089L595.85 223.509L599.94 238.359L599.5 238.039L619.43 237.269L618.96 237.909C617.61 233.189 616.34 228.439 615.03 223.709L611.11 209.499L607.24 195.279C605.96 190.539 604.7 185.789 603.33 181.069C604.15 183.389 604.86 185.739 605.6 188.089L607.76 195.139L611.93 209.279L615.97 223.459C617.3 228.189 618.66 232.909 619.95 237.649L620.12 238.269L619.48 238.289L599.54 238.909H599.19L599.11 238.589L595.33 223.659L593.48 216.179C592.86 213.689 592.25 211.189 591.66 208.689L591.65 208.679Z" fill="#35384C"/>
</g>
<path d="M428.36 143.91H378.62C377.554 143.91 376.69 144.774 376.69 145.84V145.98C376.69 147.046 377.554 147.91 378.62 147.91H428.36C429.426 147.91 430.29 147.046 430.29 145.98V145.84C430.29 144.774 429.426 143.91 428.36 143.91Z" fill="#00BF6F" fill-opacity="0.2"/>
<path d="M378.62 153.141H428.37C429.43 153.141 430.3 154.001 430.3 155.071V155.221C430.3 156.281 429.44 157.151 428.37 157.151H378.62C377.56 157.151 376.69 156.291 376.69 155.221V155.071C376.69 154.011 377.55 153.141 378.62 153.141Z" fill="#00BF6F" fill-opacity="0.2"/>
<path d="M378.62 162.36H428.37C429.43 162.36 430.3 163.22 430.3 164.29V164.44C430.3 165.5 429.44 166.37 428.37 166.37H378.62C377.56 166.37 376.69 165.51 376.69 164.44V164.29C376.69 163.23 377.55 162.36 378.62 162.36Z" fill="#00BF6F" fill-opacity="0.2"/>
<path d="M459.19 76.8096H521.77C522.35 76.8096 522.81 77.2796 522.81 77.8496V120.4C522.81 120.98 522.34 121.44 521.77 121.44H518.49C517.91 121.44 517.45 121.91 517.45 122.48V133.7C517.45 134.58 516.42 135.07 515.74 134.51L500.11 121.68C499.92 121.53 499.69 121.44 499.45 121.44H459.2C458.62 121.44 458.16 120.97 458.16 120.4V77.8496C458.16 77.2696 458.63 76.8096 459.2 76.8096H459.19Z" fill="white"/>
<path d="M465.61 91.8896H515.35C516.416 91.8896 517.28 91.0256 517.28 89.9596V89.8196C517.28 88.7537 516.416 87.8896 515.35 87.8896H465.61C464.544 87.8896 463.68 88.7537 463.68 89.8196V89.9596C463.68 91.0256 464.544 91.8896 465.61 91.8896Z" fill="#00BF6F" fill-opacity="0.2"/>
<path d="M465.61 101.12H515.35C516.416 101.12 517.28 100.256 517.28 99.1901V99.0501C517.28 97.9842 516.416 97.1201 515.35 97.1201H465.61C464.544 97.1201 463.68 97.9842 463.68 99.0501V99.1901C463.68 100.256 464.544 101.12 465.61 101.12Z" fill="#00BF6F" fill-opacity="0.2"/>
<path d="M465.61 110.34H515.35C516.416 110.34 517.28 109.476 517.28 108.41V108.27C517.28 107.204 516.416 106.34 515.35 106.34H465.61C464.544 106.34 463.68 107.204 463.68 108.27V108.41C463.68 109.476 464.544 110.34 465.61 110.34Z" fill="#00BF6F" fill-opacity="0.2"/>
<path d="M517.67 286.79C520.8 292.91 519.19 300.21 514.2 304.5C513.94 304.72 513.57 304.77 513.26 304.61L510.64 303.25C510.09 302.96 510.03 302.18 510.54 301.83C514.66 298.94 516.13 293.39 513.78 288.78C511.43 284.17 506.06 282.1 501.31 283.75C500.72 283.95 500.13 283.45 500.22 282.83L500.65 279.91C500.7 279.57 500.95 279.29 501.29 279.21C507.69 277.69 514.54 280.67 517.67 286.79V286.79Z" fill="#00BF6F" fill-opacity="0.2"/>
<path d="M525.39 282.861C529.81 291.521 528.29 301.651 522.33 308.601C522.08 308.901 521.65 308.981 521.3 308.801L518.9 307.551C518.41 307.301 518.3 306.651 518.67 306.241C523.85 300.571 525.26 292.061 521.55 284.811C517.85 277.561 510.13 273.711 502.5 274.581C501.95 274.641 501.49 274.171 501.57 273.631L501.96 270.961C502.02 270.571 502.33 270.281 502.72 270.251C511.85 269.501 520.94 274.211 525.37 282.871L525.39 282.861Z" fill="#00BF6F" fill-opacity="0.2"/>
<path d="M533.2 278.87C538.95 290.13 537.4 303.2 530.29 312.68C530.04 313.01 529.59 313.11 529.23 312.92L526.77 311.64C526.3 311.4 526.18 310.79 526.5 310.38C532.85 302.18 534.3 290.72 529.27 280.87C524.24 271.02 514.11 265.47 503.74 265.81C503.22 265.83 502.8 265.37 502.88 264.85L503.28 262.11C503.34 261.7 503.69 261.4 504.1 261.39C515.95 261.19 527.44 267.6 533.2 278.86V278.87Z" fill="#00BF6F" fill-opacity="0.2"/>
<path d="M478.86 283.821C479.14 292.331 490.6 314.761 497.33 319.981C497.33 319.981 503.27 325.57 510.91 320.05C511.41 319.69 511.56 319.011 511.26 318.471L505.76 308.851C505.76 308.851 504.72 307.45 501.54 309.3C501.03 309.59 500.42 309.63 499.88 309.4C499.11 309.07 497.93 308.4 496.55 307.06C494.35 304.92 489.37 295.46 488.87 292.02C488.6 290.12 488.74 288.771 488.93 287.951C489.06 287.381 489.45 286.901 489.99 286.661C493.36 285.171 492.83 283.501 492.83 283.501L488.26 273.411C488.01 272.851 487.37 272.57 486.78 272.77C477.83 275.73 478.87 283.81 478.87 283.81L478.86 283.821Z" fill="#00BF6F"/>
<path d="M504.927 306.986L503.475 307.727C503.077 307.931 502.919 308.419 503.122 308.817L509.339 320.992C509.542 321.39 510.03 321.548 510.429 321.345L511.88 320.603C512.279 320.4 512.437 319.912 512.233 319.514L506.017 307.339C505.813 306.941 505.325 306.783 504.927 306.986Z" fill="#00BF6F"/>
<path d="M486.897 271.659L485.446 272.4C485.047 272.604 484.889 273.092 485.092 273.49L491.309 285.665C491.513 286.063 492.001 286.221 492.399 286.018L493.851 285.276C494.249 285.073 494.407 284.585 494.204 284.187L487.987 272.012C487.784 271.614 487.296 271.455 486.897 271.659Z" fill="#00BF6F"/>
<path d="M348.85 501.03H355.97C357.28 501.03 358.35 499.97 358.35 498.65V470.02H346.47V498.65C346.47 499.96 347.53 501.03 348.85 501.03Z" fill="#6F7BB5"/>
<path d="M352.41 384.38H340.17V470.03H352.41V384.38Z" fill="#8291C4"/>
<path d="M314.48 481.28H378.1V474.75C378.1 472.14 375.99 470.03 373.38 470.03H319.2C316.59 470.03 314.48 472.14 314.48 474.75V481.28V481.28Z" fill="#8291C4"/>
<path d="M368.6 501.03H375.72C377.03 501.03 378.1 499.97 378.1 498.65V474.74C378.1 472.13 375.99 470.02 373.38 470.02H366.22V498.65C366.22 499.96 367.28 501.03 368.6 501.03V501.03Z" fill="#8291C4"/>
<path d="M316.86 501.03H323.98C325.29 501.03 326.36 499.97 326.36 498.65V470.02H319.2C316.59 470.02 314.48 472.13 314.48 474.74V498.65C314.48 499.96 315.54 501.03 316.86 501.03V501.03Z" fill="#8291C4"/>
<path d="M308.12 393.87H380.55V283.55C380.55 278.47 376.43 274.34 371.34 274.34H308.11V393.86L308.12 393.87Z" fill="#6F7BB5"/>
<path d="M298.33 394.09H322.8V274.34H307.54C302.46 274.34 298.33 278.46 298.33 283.55V394.1V394.09Z" fill="#6F7BB5"/>
<path d="M306.49 413.29H386.1C390.61 413.29 394.26 409.64 394.26 405.13V402.07C394.26 397.56 390.61 393.91 386.1 393.91H298.33V405.13C298.33 409.64 301.98 413.29 306.49 413.29V413.29Z" fill="#55618E"/>
<path d="M376.84 475.96L371.71 492.28C371.48 493.02 371.92 493.79 372.67 493.98L401.61 501.05C402.47 501.26 403.17 500.35 402.74 499.57C401.74 497.77 399.03 494.95 391.69 492.2L393.8 483.19L376.84 475.97V475.96Z" fill="#FFCD00"/>
<path d="M350.92 356.72H412.55C426.09 356.66 435.57 370.98 430.99 384.57L398.88 488.51L370.59 480.36L391.37 380.67L350.92 356.71V356.72Z" fill="#35384C"/>
<path d="M411.94 482.9L418.17 499.65C418.12 500.42 418.73 501.07 419.5 501.07L449.29 501.01C450.18 501.01 450.64 499.95 450.03 499.3C448.63 497.79 445.32 495.7 437.54 494.79L432.66 483.19L411.93 482.9H411.94Z" fill="#FFCD00"/>
<path d="M383.56 359.82L315.04 356.83C315.04 356.83 311.06 371.33 317.45 384.7C324.7 399.85 341.75 398.1 341.75 398.1L370.76 398.31L410.54 494.39L439.19 488.64L403.09 375.39C400.22 366.39 392.46 360.2 383.56 359.82V359.82Z" fill="#44465F"/>
<path d="M432.46 268.58C432.46 268.58 436.55 259.01 439.29 259.63C440.88 259.99 439.62 264.59 439.62 264.59C439.62 264.59 448 259.68 451.15 259.63C454.95 259.57 456.37 265.58 455.06 267.77C453.75 269.96 438.89 277.59 438.89 277.59L432.47 268.58H432.46Z" fill="#C17C74"/>
<path d="M369.6 265.44L395.81 283.58L432.47 263.93L442.73 278.84L404.98 304.33C401.41 307.1 396.61 307.7 392.46 305.9L364.25 289.18" fill="#FFCD00"/>
<path d="M358.8 205.46C358.8 205.46 362.46 202.43 367.22 205.11C371.85 207.72 363.76 227.88 363.76 227.88C363.76 227.88 384.3 250.58 367.94 270.27C351.59 289.96 310.41 291.13 310.41 291.13L310.24 294.83C310.24 294.83 292.89 267.35 308.37 252.81C308.37 252.81 306.19 225.42 322.52 217.24C338.85 209.07 358.8 205.45 358.8 205.45V205.46Z" fill="#44465F"/>
<path d="M356.33 256.3C356.33 256.3 361.36 254.44 368.59 262.76C373.57 268.5 380.42 282.98 378.8 288.24C376.22 296.64 369.95 311.39 369.95 311.39C369.95 311.39 377.69 345.76 377.25 359.55C377.25 359.55 363 362.87 347.06 363.02C327.25 363.21 312.89 360.54 312.89 360.54C312.89 360.54 320.84 321.02 320.4 315.33C319.96 309.64 314.31 290.31 313.83 278.88C313.35 267.44 325 257.37 329.29 257.01C333.59 256.65 356.33 256.31 356.33 256.31V256.3Z" fill="#FFCD00"/>
<path d="M372.12 267.38C372.98 269.14 373.83 270.92 374.67 272.69C375.52 274.46 376.36 276.23 377.19 278.02L378.44 280.69C378.87 281.59 379.19 282.57 379.37 283.56C379.74 285.55 379.51 287.66 378.76 289.53L374.58 300.54C373.18 304.21 371.74 307.86 370.32 311.52L370.34 311.3L371.47 316.99L372.55 322.69C372.91 324.59 373.27 326.49 373.61 328.39C373.95 330.29 374.3 332.2 374.62 334.1C374.16 332.22 373.73 330.34 373.3 328.45C372.86 326.57 372.44 324.68 372.03 322.79L370.78 317.13L369.58 311.46L369.56 311.35L369.6 311.24C371 307.57 372.37 303.89 373.8 300.23L378.08 289.25C378.79 287.48 379.05 285.55 378.75 283.66C378.61 282.72 378.33 281.8 377.94 280.92L376.76 278.22C375.97 276.42 375.2 274.61 374.43 272.81C373.66 271 372.89 269.2 372.14 267.38H372.12Z" fill="#35384C"/>
<path d="M539.48 345.9H524.82V501.08H539.48V345.9Z" fill="#44465F"/>
<path d="M353.11 323.67C353.11 323.67 364.51 323.09 370.56 328.93C376.61 334.77 370.56 334.19 370.56 334.19L349.39 334.21L353.11 323.68V323.67Z" fill="#C17C74"/>
<path d="M314.41 272.88L297.92 319.79C295.19 327.55 300.83 335.72 309.05 335.93L351.82 337.01L356.34 322.07L319.96 315.83L329.75 287.11" fill="#FFCD00"/>
<path d="M328.12 291.94C327.5 293.95 326.86 295.96 326.22 297.96C325.58 299.97 324.94 301.97 324.28 303.97L322.32 309.97C321.67 311.97 321.01 313.97 320.33 315.96L320.03 315.46L329.13 316.98C332.17 317.48 335.2 318.01 338.22 318.54L347.31 320.14C350.34 320.66 353.36 321.25 356.39 321.8C356.54 321.83 356.64 321.97 356.61 322.12C356.61 322.13 356.61 322.14 356.61 322.15C355.86 324.5 355.13 326.86 354.36 329.21C353.59 331.56 352.84 333.91 352.05 336.25C352.69 333.86 353.37 331.49 354.03 329.11C354.69 326.73 355.39 324.36 356.07 321.98L356.29 322.34C353.25 321.85 350.21 321.39 347.18 320.88L338.08 319.36C335.05 318.86 332.01 318.35 328.98 317.8L319.89 316.2C319.68 316.16 319.54 315.96 319.58 315.76C319.58 315.74 319.58 315.72 319.59 315.7C320.27 313.71 320.97 311.72 321.68 309.74L323.79 303.79C324.49 301.8 325.21 299.83 325.93 297.85C326.65 295.87 327.37 293.89 328.11 291.92L328.12 291.94Z" fill="#35384C"/>
<path d="M346.26 339.59H426.7V332.95H346.26C345.13 332.95 344.22 333.87 344.22 334.99V337.55C344.22 338.68 345.14 339.59 346.26 339.59V339.59Z" fill="#44465F"/>
<path d="M379.56 339.59H458.47C460.44 339.59 462.04 337.99 462.04 336.02V332.95H379.55V339.59H379.56Z" fill="#44465F"/>
<path d="M468.07 284.69H392.54C391.31 284.69 390.25 285.54 389.98 286.74L379.56 332.95H461.99L470.66 287.82C470.97 286.2 469.73 284.7 468.08 284.7L468.07 284.69Z" fill="#7C87ED"/>
<path d="M232.49 346.351H217.83V501.081H232.49V346.351Z" fill="#44465F"/>
<path d="M468.09 345.9H453.43V501.08H468.09V345.9Z" fill="#44465F"/>
<path d="M218.79 353.47H315.97C318.88 353.47 321.24 351.11 321.24 348.2V344.51C321.24 341.6 318.88 339.24 315.97 339.24H223.09C220.18 339.24 217.82 341.6 217.82 344.51V352.5C217.82 353.03 218.25 353.47 218.79 353.47V353.47Z" fill="#44465F"/>
<path d="M310.75 353.47H543.82C544.57 353.47 545.18 352.86 545.18 352.11V344.93C545.18 341.78 542.63 339.23 539.48 339.23H315.27C312.12 339.23 309.57 341.78 309.57 344.93V352.29C309.57 352.94 310.1 353.47 310.75 353.47V353.47Z" fill="white"/>
<path d="M309.57 346.351H294.91V501.081H309.57V346.351Z" fill="#44465F"/>
<path d="M312.98 276.93C311.64 281.04 310.25 285.13 308.88 289.23L304.69 301.5L300.43 313.75L298.29 319.87C297.56 321.84 297.38 323.98 297.76 326.03C298.13 328.08 299.09 330.02 300.47 331.59C301.85 333.16 303.65 334.35 305.65 334.97C306.65 335.28 307.69 335.46 308.73 335.5L311.97 335.6L318.45 335.82L331.41 336.29C335.73 336.47 340.05 336.63 344.37 336.84C340.05 336.82 335.72 336.75 331.4 336.7L318.43 336.47L311.95 336.35L308.71 336.27C307.6 336.24 306.49 336.05 305.42 335.73C303.28 335.08 301.34 333.82 299.85 332.15C298.37 330.48 297.33 328.41 296.91 326.21C296.7 325.11 296.64 323.98 296.74 322.86C296.83 321.75 297.11 320.64 297.49 319.6L299.67 313.49L304.04 301.28L308.47 289.09C309.98 285.04 311.46 280.98 312.99 276.94L312.98 276.93Z" fill="#35384C"/>
<path d="M336.32 240.99L337.66 260.78C337.81 262.94 339.69 264.55 341.84 264.37L353.48 263.38C355.61 263.2 357.19 261.32 357 259.2L355.95 247.05L336.31 240.99H336.32Z" fill="#C17C74"/>
<path d="M337.12 252.81L354.74 251.99C360.13 251.4 364.1 246.67 363.74 241.26L361.77 211.68L330.19 216.79L329.97 238.23C329.97 238.23 332.1 242.94 336.32 241L337.12 252.82V252.81Z" fill="#C17C74"/>
<path d="M356.75 256.29L340.66 252.65L356.35 251.68L356.75 256.29Z" fill="#C17174"/>
<path d="M329.98 236.58C329.98 236.58 343.2 232.43 346.66 224.55C350.12 216.67 357.33 212.52 361.76 211.67C366.19 210.82 357.18 198.19 340.66 199.36C324.14 200.53 322.6 214.73 322.6 214.73C322.6 214.73 321.22 233.71 329.98 236.57V236.58Z" fill="#44465F"/>
<path d="M359.21 246.34L355.85 247.14C354.73 247.4 353.6 246.71 353.34 245.59C353.08 244.47 353.77 243.34 354.89 243.08L358.25 242.28C359.37 242.02 360.5 242.71 360.76 243.83C361.02 244.95 360.33 246.08 359.21 246.34Z" fill="#44465F"/>
</svg>
